<svg xmlns="http://www.w3.org/2000/svg" viewBox="0 0 120 120" role="img" aria-labelledby="title desc">
  <title id="title">Qarta logo</title>
  <desc id="desc">Letter Q inside a rounded square</desc>
  <defs>
    <linearGradient id="grad" x1="0%" y1="0%" x2="100%" y2="100%">
      <stop offset="0%" stop-color="#10b981"/>
      <stop offset="100%" stop-color="#0ea5e9"/>
    </linearGradient>
  </defs>
  <rect x="5" y="5" width="110" height="110" rx="24" fill="url(#grad)" />
  <path d="M60 26c-16 0-28 12-28 29s12 29 28 29c7 0 13-3 18-7l9 9c1 1 1 3 0 4l-5 5c-1 1-3 1-4 0l-8-8c-4 2-7 3-10 3-18 0-32-14-32-35S42 21 60 21s32 14 32 35c0 7-2 13-6 19l-8-9c3-4 4-8 4-12 0-17-12-28-28-28Z" fill="#f8fafc"/>
</svg>
